<mxfile host="app.diagrams.net" modified="2023-04-23T07:34:05.536Z" agent="Mozilla/5.0 (X11; Linux x86_64) AppleWebKit/537.36 (KHTML, like Gecko) Chrome/103.0.0.0 Safari/537.36" version="21.2.1" etag="778cbSFdOqP3HQgTPY9E" type="github">
  <diagram name="Page-1" id="8MbiU3iil9rADkK81Dmc">
    <mxGraphModel>
      <root>
        <mxCell id="0" />
        <mxCell id="1" parent="0" />
      </root>
    </mxGraphModel>
  </diagram>
</mxfile>
